<?xml version="1.0" encoding="UTF-8" standalone="no" ?>
<!DOCTYPE svg PUBLIC "-//W3C//DTD SVG 1.1//EN" "http://www.w3.org/Graphics/SVG/1.1/DTD/svg11.dtd">
<svg xmlns="http://www.w3.org/2000/svg" xmlns:xlink="http://www.w3.org/1999/xlink" version="1.1" width="1080" height="1080" viewBox="0 0 1080 1080" xml:space="preserve">
<desc>Created with Fabric.js 5.2.4</desc>
<defs>
</defs>
<g transform="matrix(1 0 0 1 540 540)" id="d110ee89-1892-4ad3-84a8-3ce66fb33fed"  >
<rect style="stroke: none; stroke-width: 1; stroke-dasharray: none; stroke-linecap: butt; stroke-dashoffset: 0; stroke-linejoin: miter; stroke-miterlimit: 4; fill: rgb(255,255,255); fill-rule: nonzero; opacity: 1; visibility: hidden;" vector-effect="non-scaling-stroke"  x="-540" y="-540" rx="0" ry="0" width="1080" height="1080" />
</g>
<g transform="matrix(1 0 0 1 540 540)" id="ab35485d-c262-4ac3-a732-4c63dba20673"  >
</g>
<g transform="matrix(1 0 0 1 540 540)"  >
<g style="" vector-effect="non-scaling-stroke"   >
		<g transform="matrix(1 0 0 1 0 0)"  >
<rect style="stroke: none; stroke-width: 1; stroke-dasharray: none; stroke-linecap: butt; stroke-dashoffset: 0; stroke-linejoin: miter; stroke-miterlimit: 4; fill: rgb(255,255,255); fill-rule: nonzero; opacity: 1; visibility: hidden;" vector-effect="non-scaling-stroke"  x="-540" y="-540" rx="0" ry="0" width="1080" height="1080" />
</g>
		<g transform="matrix(47.69 0 0 47.69 1.05 1.05)"  >
<path style="stroke: rgb(0,0,0); stroke-width: 0; stroke-dasharray: none; stroke-linecap: butt; stroke-dashoffset: 0; stroke-linejoin: miter; stroke-miterlimit: 4; fill: rgb(255,255,255); fill-rule: nonzero; opacity: 1;" vector-effect="non-scaling-stroke"  transform=" translate(-11.04, -11.04)" d="M 22.044 18.918 L 20.295 15.418 L 20.295 3.457 C 20.29389756057808 2.7799657080115674 19.745034965805573 2.231550434017193 19.068 2.231 L 17.619 2.231 L 17.619 0.335 C 17.61845085090355 0.15021255179758472 17.468787448202413 0.0005491490964482093 17.284 -5.551115123125783e-17 L 13.163999999999998 0 C 12.287929275470782 0.0012602743550228388 11.4787477419194 0.46871118851111804 11.04 1.226999999999999 C 10.600623043682821 0.46885311049610223 9.791262807884163 0.00151898846082954 8.915 -2.220446049250313e-16 L 4.8 0 C 4.615375253126606 0.0005511211009858283 4.465999177429363 0.15037443055780106 4.466 0.3349999999999998 L 4.466 2.235 L 3.011 2.235 C 2.335520742155017 2.2355420028957105 1.7873001708649177 2.7815285865277413 1.784 3.457 L 1.784 15.421 L 0.03499999999999992 18.921 C 0.012373284464104024 18.967081195511422 0.0004108839522489055 19.017665060532984 0 19.069 L 0 20.852999999999998 C 0.0011024394219207605 21.53003429198843 0.5499650341944298 22.078449565982805 1.2269999999999996 22.078999999999997 L 20.853 22.078999999999997 C 21.52987256443789 22.078448576047844 22.078448576047847 21.529872564437888 22.079 20.852999999999998 L 22.079 19.069 C 22.079043592619627 19.016651348376595 22.06706941654959 18.964991331617295 22.044 18.918 Z M 17.619 12.966999999999999 L 17.619 2.9 L 19.068 2.9 C 19.375784788141235 2.8999995057472367 19.625448414358566 3.149215706111132 19.626 3.457 L 19.626 15.165 L 11.374 15.165 C 11.3566800885354 14.678351554698658 11.537270962449861 14.205449498590772 11.874558785853528 13.854217932767066 C 12.211846609257194 13.502986366943361 12.677049343291664 13.303397202259733 13.164 13.300999999999998 L 17.284000000000002 13.300999999999998 C 17.4686255694422 13.301000822570634 17.618448878899013 13.151624746873393 17.619 12.967 Z M 11.04 3.81 C 12.949248380165052 3.81 14.496999999999998 5.357751619834946 14.497 7.2669999999999995 C 14.497 9.176248380165053 12.949248380165052 10.723999999999998 11.040000000000001 10.724 C 9.130751619834946 10.724 7.582999999999999 9.176248380165053 7.582999999999999 7.267 C 7.582999999999999 5.357751619834947 9.130751619834946 3.8100000000000005 11.04 3.8100000000000005 Z M 13.164 0.669 L 16.948999999999998 0.669 L 16.948999999999998 12.632 L 13.164 12.632 C 12.485808508798204 12.631561315011155 11.837749012360957 12.912145733859683 11.373999999999999 13.407 L 11.373999999999999 11.376 C 13.503213911503947 11.187917418749171 15.136034436895176 9.40450483936573 15.136034436895176 7.2669999999999995 C 15.136034436895176 5.129495160634269 13.503213911503947 3.346082581250828 11.373999999999999 3.1579999999999995 L 11.373999999999999 2.4579999999999993 C 11.375652975029604 1.4702577560034649 12.176256986519151 0.6701010093248059 13.163999999999998 0.669 Z M 5.13 0.669 L 8.915 0.669 C 9.903132790634437 0.670102212729938 10.70389778727006 1.4708672093655628 10.704999999999998 2.4590000000000005 L 10.704999999999998 3.159 C 8.57578608849605 3.347082581250829 6.9429655631048215 5.13049516063427 6.9429655631048215 7.268 C 6.9429655631048215 9.40550483936573 8.57578608849605 11.18891741874917 10.704999999999998 11.376999999999999 L 10.704999999999998 13.408 C 10.240829112853913 12.913745568007297 9.593042755252064 12.633279407593086 8.915 12.633 L 5.13 12.633 Z M 2.453 3.457 C 2.453551585641434 3.1492157061111317 2.7032152118587653 2.8999995057472363 3.011 2.9 L 4.461 2.9 L 4.461 12.967 C 4.461257302028884 13.056281952694935 4.497249693332988 13.141744346319095 4.560942970732378 13.204310309074247 C 4.624636248131766 13.266876271829398 4.7107276868627315 13.301336932487475 4.8 13.3 L 8.92 13.3 C 9.406950656708338 13.302397202259733 9.872153390742806 13.501986366943362 10.209441214146473 13.853217932767068 C 10.54672903755014 14.204449498590774 10.727319911464601 14.67735155469866 10.71 15.164000000000001 L 2.453 15.164000000000001 Z M 2.325 15.834 L 19.754 15.834 L 21.203000000000003 18.733999999999998 L 0.876 18.733999999999998 Z M 21.41 20.853 C 21.40944960595343 21.160394336334324 21.160394336334324 21.40944960595343 20.853 21.41 L 1.227 21.41 C 0.9192152118587661 21.410000494252763 0.6695515856414349 21.16078429388887 0.669 20.853 L 0.669 19.4 L 21.41 19.4 Z M 10.147 20.072000000000003 L 11.932 20.072000000000003 C 12.109640984464887 20.081716443777708 12.248703825536472 20.22859348342082 12.248703825536472 20.4065 C 12.248703825536472 20.584406516579186 12.109640984464887 20.731283556222298 11.932 20.741000000000003 L 10.147 20.741000000000003 C 9.9693590155351 20.731283556222316 9.830296174463495 20.584406516579197 9.830296174463495 20.4065 C 9.830296174463495 20.228593483420806 9.9693590155351 20.081716443777687 10.147 20.072 Z M 9.93 9.722 C 10.0432048619475 9.778351984673375 10.178462124486073 9.766372055705672 10.28 9.690999999999999 L 13.18 7.536 C 13.264371880781463 7.472524887495519 13.314000618812829 7.373082688799148 13.314000618812829 7.2675 C 13.314000618812829 7.161917311200852 13.264371880781463 7.0624751125044805 13.18 6.999 L 10.28 4.843 C 10.178501941277561 4.768048238485643 10.043499718533345 4.756482320895715 9.93073176562263 4.813077473292854 C 9.817963812711914 4.869672625689992 9.746559669661295 4.984828254952233 9.745999999999999 5.111 L 9.745999999999999 9.422 C 9.745869244329352 9.5486922406559 9.817012623411186 9.664686880463236 9.93 9.722 Z M 10.415 5.776999999999999 L 12.415 7.2669999999999995 L 10.415 8.757 Z" stroke-linecap="round" />
</g>
</g>
</g>
</svg>