<?xml version="1.0" encoding="UTF-8" standalone="no" ?>
<!DOCTYPE svg PUBLIC "-//W3C//DTD SVG 1.1//EN" "http://www.w3.org/Graphics/SVG/1.1/DTD/svg11.dtd">
<svg xmlns="http://www.w3.org/2000/svg" xmlns:xlink="http://www.w3.org/1999/xlink" version="1.1" width="1080" height="1080" viewBox="0 0 1080 1080" xml:space="preserve">
<desc>Created with Fabric.js 5.2.4</desc>
<defs>
</defs>
<g transform="matrix(1 0 0 1 540 540)" id="f71de170-bd6f-43a1-aca5-a396d4088e81"  >
<rect style="stroke: none; stroke-width: 1; stroke-dasharray: none; stroke-linecap: butt; stroke-dashoffset: 0; stroke-linejoin: miter; stroke-miterlimit: 4; fill: rgb(255,255,255); fill-rule: nonzero; opacity: 1; visibility: hidden;" vector-effect="non-scaling-stroke"  x="-540" y="-540" rx="0" ry="0" width="1080" height="1080" />
</g>
<g transform="matrix(1 0 0 1 540 540)" id="37478ddd-1195-461f-9b94-1bb4e7fc21ee"  >
</g>
<g transform="matrix(17.56 0 0 17.56 543.05 535.77)"  >
<g style="" vector-effect="non-scaling-stroke"   >
		<g transform="matrix(1 0 0 1 0 8.01)"  >
<path style="stroke: none; stroke-width: 1; stroke-dasharray: none; stroke-linecap: butt; stroke-dashoffset: 0; stroke-linejoin: miter; stroke-miterlimit: 4; fill: rgb(255,255,255); fill-rule: nonzero; opacity: 1;" vector-effect="non-scaling-stroke"  transform=" translate(-32, -40)" d="M 61 35 L 47 35 C 46.4477152501692 35 46 35.4477152501692 46 36 L 46 60 L 40 60 L 40 19 C 40 18.447715250169207 39.5522847498308 18 39 18 L 25 18 C 24.447715250169207 18 24 18.447715250169207 24 19 L 24 60 L 18 60 L 18 32 C 18 31.447715250169207 17.552284749830793 31 17 31 L 3 31 C 2.4477152501692068 31 2 31.447715250169207 2 32 L 2 61 C 2 61.5522847498308 2.4477152501692068 62 3 62 L 61 62 C 61.5522847498308 62 62 61.5522847498308 62 61 L 62 36 C 62 35.4477152501692 61.5522847498308 35 61 35 Z M 4 60 L 4 33 L 16 33 L 16 60 Z M 26 60 L 26 20 L 38 20 L 38 60 Z M 48 60 L 48 37 L 60 37 L 60 60 Z" stroke-linecap="round" />
</g>
		<g transform="matrix(1 0 0 1 0.01 -15.49)"  >
<path style="stroke: none; stroke-width: 1; stroke-dasharray: none; stroke-linecap: butt; stroke-dashoffset: 0; stroke-linejoin: miter; stroke-miterlimit: 4; fill: rgb(255,255,255); fill-rule: nonzero; opacity: 1;" vector-effect="non-scaling-stroke"  transform=" translate(-32.01, -16.5)" d="M 10 27 C 11.95021637945679 27.005423844744932 13.780704812065224 26.060061455232248 14.905214544168949 24.466684159298424 C 16.029724276272674 22.873306863364604 16.307134869757455 20.83187567127391 15.648600000000002 18.9962 L 27.325699999999998 11.752900000000002 C 28.377722356966284 13.06938812908447 29.936333028164114 13.880948972352236 31.61813069076007 13.987947363293419 C 33.29992835335602 14.094945754234601 34.948821391807634 13.487450919323994 36.1592 12.314900000000002 L 48.6517 22.294900000000002 C 47.23884273657793 25.08364455832017 48.19863843772457 28.48982267350028 50.85965764933868 30.130626931718027 C 53.52067686095279 31.771431189935775 56.99510804632119 31.099430387547123 58.85239704551457 28.584725746472927 C 60.70968604470795 26.070021105398727 60.33017457292416 22.551608369084807 57.97935160872451 20.490809191737238 C 55.628528644524856 18.43001001438967 52.09071312077443 18.514380982038652 49.8408 20.684900000000006 L 37.3483 10.704900000000002 C 38.59169062109321 8.265045669838331 38.02577437215077 5.292932591194242 35.972757506558374 3.480742993325306 C 33.91974064096598 1.6685533954563692 30.900366614343127 1.4759453986867381 28.633725830095326 3.0125809912120864 C 26.367085045847524 4.549216583737434 25.42810622200882 7.425331345259792 26.3514 10.0034 L 14.6743 17.2471 C 12.923685629334367 15.066929583116817 9.898860332622583 14.3856218447925 7.382597664087362 15.604726395013534 C 4.86633499555214 16.82383094523457 3.526259806802564 19.61989010026436 4.152186507870782 22.344960647300432 C 4.778113208939001 25.070031194336504 7.203968429924377 27.001086542260573 9.999999999999996 27 Z M 54 21 C 56.20913899932317 21 58 22.790861000676827 58 25 C 58 27.209138999323173 56.20913899932317 29 54 29 C 51.79086100067683 29 50 27.209138999323176 50 25 C 50.00247994227413 22.791889042177623 51.79188904217762 21.002479942274128 54 21 Z M 32 4 C 34.20913899932317 4 36 5.790861000676825 36 7.999999999999999 C 36 10.209138999323173 34.20913899932317 12 32 12 C 29.790861000676827 12 28 10.209138999323176 28 8.000000000000002 C 28.002479942274128 5.791889042177624 29.791889042177623 4.002479942274128 31.999999999999996 4 Z M 10 17 C 12.209138999323173 17 14 18.790861000676827 14 21 C 14 23.209138999323173 12.209138999323175 25 10.000000000000002 25 C 7.790861000676827 25 6.000000000000001 23.209138999323176 6 21 C 6.002479942274126 18.791889042177623 7.791889042177621 17.002479942274128 9.999999999999996 17 Z" stroke-linecap="round" />
</g>
</g>
</g>
</svg>