<?xml version="1.0" encoding="UTF-8" standalone="no" ?>
<!DOCTYPE svg PUBLIC "-//W3C//DTD SVG 1.1//EN" "http://www.w3.org/Graphics/SVG/1.1/DTD/svg11.dtd">
<svg xmlns="http://www.w3.org/2000/svg" xmlns:xlink="http://www.w3.org/1999/xlink" version="1.1" width="1080" height="1080" viewBox="0 0 1080 1080" xml:space="preserve">
<desc>Created with Fabric.js 5.2.4</desc>
<defs>
</defs>
<g transform="matrix(1 0 0 1 540 540)" id="0c652093-7b74-454d-a738-8510592b7770"  >
<rect style="stroke: none; stroke-width: 1; stroke-dasharray: none; stroke-linecap: butt; stroke-dashoffset: 0; stroke-linejoin: miter; stroke-miterlimit: 4; fill: rgb(255,255,255); fill-rule: nonzero; opacity: 1; visibility: hidden;" vector-effect="non-scaling-stroke"  x="-540" y="-540" rx="0" ry="0" width="1080" height="1080" />
</g>
<g transform="matrix(1 0 0 1 540 540)" id="27c822f4-8883-49e2-b516-671320fa52ca"  >
</g>
<g transform="matrix(13.5 0 0 13.5 540 540)" id="User"  >
<path style="stroke: rgb(255,255,255); stroke-width: 0; stroke-dasharray: none; stroke-linecap: butt; stroke-dashoffset: 0; stroke-linejoin: miter; stroke-miterlimit: 4; fill: rgb(255,255,255); fill-rule: nonzero; opacity: 1;" vector-effect="non-scaling-stroke"  transform=" translate(-39, -39)" d="M 48.3 41.2 C 54.8 37.2 59 29.3 59 22 C 59 11.6 50.5 0 39 0 C 27.5 0 19 11.6 19 22 C 19 29.3 23.2 37.2 29.7 41.2 C 14.3 45.3 3 59.4 3 76 C 3 77.1 3.9 78 5 78 L 73 78 C 74.1 78 75 77.1 75 76 C 75 59.4 63.7 45.3 48.3 41.2 z M 23 22 C 23 11.7 31.5 4 39 4 C 46.5 4 55 11.7 55 22 C 55 32.3 46.5 40 39 40 C 31.5 40 23 32.3 23 22 z M 7.1 74 C 8.1 57.3 22.1 44 39 44 C 55.9 44 69.9 57.3 70.9 74 L 7.1 74 z" stroke-linecap="round" />
</g>
</svg>